<?xml version="1.0" encoding="utf-8"?>
<!-- Generator: Adobe Illustrator 16.0.0, SVG Export Plug-In . SVG Version: 6.00 Build 0)  -->
<!DOCTYPE svg PUBLIC "-//W3C//DTD SVG 1.1//EN" "http://www.w3.org/Graphics/SVG/1.1/DTD/svg11.dtd">
<svg version="1.1" id="Ebene_1" xmlns="http://www.w3.org/2000/svg" xmlns:xlink="http://www.w3.org/1999/xlink" x="0px" y="0px"
	 width="271.84px" height="99.111px" viewBox="0 0 271.84 99.111" enable-background="new 0 0 271.84 99.111" xml:space="preserve">
<g>
	<path fill="#4D97CD" d="M139.657,8.707v-8.709l21.107,18.075l-2.52,5.539L139.657,8.707z"/>
	<path fill="#40BBAE" d="M160.765,25.631l-21.107,18.075v-8.708l21.107-16.925V25.631L160.765,25.631z"/>
	<path fill="#D75056" d="M113.96,23.613l-2.52-5.539l21.107-18.075v8.709L113.96,23.613z"/>
	<path fill="#F5D25A" d="M111.44,25.631v-7.559l21.107,16.925v8.708L111.44,25.631L111.44,25.631z"/>
</g>
<g>
	<path fill="#42424A" d="M18.884,81.643l-0.809,2.991H12.01l-2.993,13.95H3.194l5.822-27.011c-3.113,0.162-5.256,1.941-5.256,8.37
		c0,2.063,0.525,2.386,0.566,2.75C1.537,82.694,0,81.683,0,78.772c0-5.378,3.801-10.514,13.789-10.514
		c1.618,0,4.165,0.485,6.712,0.485c1.253,0,2.507-0.121,3.639-0.485c-0.566,1.698-0.687,4.165-3.841,4.853
		c-1.86,0-3.76-0.364-5.661-0.769l-1.981,9.301H18.884z"/>
	<path fill="#42424A" d="M28.469,78.367l-0.445,2.021c1.456-1.133,3.073-2.021,4.771-2.021c1.82,0,2.912,1.051,2.912,2.588
		c0,1.415-1.052,3.154-3.033,3.154c-2.265,0-1.132-2.668-2.345-2.668s-1.86,0.444-2.791,1.294l-3.356,15.851h-5.823l4.286-20.218
		L28.469,78.367L28.469,78.367z"/>
	<path fill="#42424A" d="M50.669,83.906c0.244,0.243,0.606,0.364,1.174,0.364c1.9,0,2.75-1.375,4.246-1.981l0.162,0.85
		c-1.254,1.576-3.356,2.91-5.701,3.558c-0.77,8.127-5.176,12.13-9.219,12.13c-4.327,0-6.187-1.819-6.187-6.631
		c0-9.947,5.055-14.233,10.635-14.233C49.618,77.962,50.589,80.955,50.669,83.906z M47.557,87.102c-1.173,0-1.698-0.85-1.698-1.819
		c0-1.173,0.688-2.426,1.779-2.831c-0.121-1.334-0.566-2.103-1.698-2.103c-3.801,0-5.418,8.249-5.418,11.482
		c0,2.426,1.132,3.073,2.709,3.073C45.696,94.906,47.071,91.024,47.557,87.102z"/>
	<path fill="#42424A" d="M68.909,92.115c-0.121,0.445-0.203,0.89-0.203,1.294c0,0.89,0.445,1.496,2.022,1.496
		c1.617,0,2.224-1.253,3.841-2.547h1.375c-1.859,1.86-4.933,6.227-8.087,6.227c-3.153,0-5.014-1.375-5.014-4.407
		c0-0.647,0.081-1.295,0.243-2.063l1.537-7.278c0.08-0.363,0.121-0.728,0.121-1.051c0-1.456-0.769-2.386-1.86-2.386
		c-0.972,0-1.698,0.283-2.548,0.849L56.9,98.585h-5.823l4.287-20.218h5.822l-0.484,2.185c1.657-1.214,3.518-2.185,5.297-2.185
		c2.183,0,4.649,2.345,4.649,5.054c0,0.324,0,0.647-0.081,0.972L68.909,92.115z"/>
	<path fill="#42424A" d="M83.145,71.979c0,0-0.606,2.75-1.375,6.389h2.426l-0.323,1.617h-2.426
		c-2.789,12.778-2.75,13.182-2.75,13.384c0,0.93,0.404,1.537,2.022,1.537c1.616,0,3.72-2.264,5.337-3.558h1.375
		c-1.86,1.859-6.43,7.237-9.583,7.237c-3.114,0-5.015-1.375-5.015-4.407c0-2.144,2.104-10.716,2.791-14.193H74.29l0.324-1.617h1.334
		l1.213-5.58L83.145,71.979z"/>
	<path fill="#42424A" d="M92.527,95.673c1.981,0,5.378-2.346,6.793-5.338h1.82c-2.306,4.165-6.187,8.249-11.403,8.249
		c-3.882,0-5.984-2.952-5.984-6.429c0-5.135,2.184-14.153,9.543-14.153c3.315,0,5.176,1.375,5.176,4.206
		c0,4.934-5.297,7.765-9.139,8.249c-0.08,0.647-0.121,1.253-0.121,1.739C89.212,94.865,90.95,95.673,92.527,95.673z M94.63,80.147
		c-2.266,0-4.125,4.568-4.975,8.37c3.721-0.041,6.35-3.235,6.389-6.106C96.044,81.562,95.843,80.147,94.63,80.147z"/>
	<path fill="#42424A" d="M115.415,92.115c-0.121,0.445-0.201,0.89-0.201,1.294c0,0.89,0.445,1.496,2.021,1.496
		c1.617,0,2.225-1.253,3.842-2.547h1.375c-1.86,1.86-4.934,6.227-8.088,6.227s-5.014-1.375-5.014-4.407
		c0-0.647,0.081-1.295,0.243-2.063l1.536-7.278c0.082-0.363,0.121-0.728,0.121-1.051c0-1.456-0.768-2.386-1.859-2.386
		c-0.971,0-1.698,0.283-2.547,0.849l-3.438,16.336h-5.822l4.285-20.218h5.823l-0.485,2.185c1.658-1.214,3.519-2.185,5.297-2.185
		c2.184,0,4.65,2.345,4.65,5.054c0,0.324,0,0.647-0.08,0.972L115.415,92.115z"/>
	<path fill="#42424A" d="M135.028,92.115c-0.121,0.485-0.201,0.93-0.201,1.375c0,0.849,0.323,1.496,1.455,1.496
		c0.283,0,0.729,0,1.051-0.122c-1.131,3.478-2.83,3.72-4.205,3.72c-2.346,0-3.6-1.213-4.004-3.033
		c-1.213,1.658-3.033,3.275-5.459,3.275c-3.881,0-5.014-2.749-5.014-5.135c0-6.955,2.508-15.285,10.594-15.285
		c0.971,0,1.981,0.445,2.709,1.011l1.779-8.33l5.944-0.809L135.028,92.115z M124.111,92.601c0,2.426,1.334,2.871,2.345,2.871
		c0.931,0,1.779-0.89,2.547-1.981c0.041-0.445,0.123-0.89,0.244-1.375l2.305-10.756c-0.647-0.526-1.416-0.688-1.981-0.688
		C126.538,80.671,124.111,87.102,124.111,92.601z"/>
	<path fill="#42424A" d="M162.368,72.06l-4.854,22.685c0.77,0.566,1.536,0.81,2.305,0.81c4.813,0,7.764-9.745,7.764-17.51
		c0-5.054-0.93-7.925-5.58-7.925c-6.551,0-10.918,3.68-10.918,9.826c0,2.063,0.525,2.386,0.566,2.75
		c-2.79,0-4.326-1.011-4.326-3.922c0-5.378,7.439-10.513,14.192-10.513c9.341,0,11.646,5.216,11.646,10.917
		c0,10.433-5.216,19.935-11.201,19.935c-1.535,0-3.193-0.646-4.933-2.143l-0.323,1.616h-5.822l5.498-25.717L162.368,72.06z"/>
	<path fill="#42424A" d="M181.941,95.673c1.981,0,5.378-2.346,6.793-5.338h1.819c-2.305,4.165-6.188,8.249-11.402,8.249
		c-3.882,0-5.984-2.952-5.984-6.429c0-5.135,2.185-14.153,9.543-14.153c3.315,0,5.177,1.375,5.177,4.206
		c0,4.934-5.298,7.765-9.14,8.249c-0.08,0.647-0.121,1.253-0.121,1.739C178.626,94.865,180.364,95.673,181.941,95.673z
		 M184.044,80.147c-2.266,0-4.125,4.568-4.975,8.37c3.721-0.041,6.35-3.235,6.389-6.106
		C185.458,81.562,185.257,80.147,184.044,80.147z"/>
	<path fill="#42424A" d="M204.102,81.198c0,6.308-3.194,17.387-11.362,17.387c-3.113,0-5.014-1.375-5.014-4.408
		c0-0.605,0.04-1.294,0.202-2.062l2.911-13.748h5.822l-2.912,13.748c-0.121,0.566-0.201,1.051-0.201,1.496
		c0,0.769,0.363,1.294,1.537,1.294c3.961,0,6.672-8.855,6.672-13.263c-0.243,0.081-0.606,0.162-0.851,0.162
		c-1.173,0-1.698-1.133-1.698-2.266c0-0.849,0.972-1.98,2.306-1.98C203.253,77.559,204.102,79.095,204.102,81.198z"/>
	<path fill="#42424A" d="M215.061,70.28l-1.94,9.179c0.931-0.688,2.144-1.173,3.479-1.173c3.882,0,5.135,2.75,5.135,5.135
		c0,6.35-3.479,15.285-10.715,15.285c-4.003,0-6.672-1.132-6.672-4.608c0-0.566,0.081-1.254,0.242-1.981l4.488-21.026L215.061,70.28
		z M214.899,80.712c-0.404,0-1.82,0.283-2.184,0.566l-2.305,10.837c-0.203,0.971-0.324,1.698-0.324,2.224
		c0,1.214,0.565,1.496,1.779,1.496c3.315,0,5.338-9.219,5.338-12.131C217.204,81.279,215.911,80.712,214.899,80.712z"/>
	<path fill="#42424A" d="M241.063,78.367l-2.871,13.748c-0.121,0.606-0.201,1.092-0.201,1.496c0,0.849,0.322,1.294,1.254,1.294
		c0.443,0,1.051-0.566,1.697-1.496c0-3.355,1.455-5.216,3.073-5.337c1.455-2.628,2.386-6.227,3.071-9.3l5.863-1.213v0.565
		c0,6.672,2.711,8.694,2.75,13.425l-0.039,0.85c1.131-1.011,2.143-2.063,2.627-2.628l1.053,1.375c-1.133,0.89-2.75,2.305-4.367,3.68
		c-1.053,2.225-3.355,3.761-7.117,3.761c-3.72,0-5.902-0.85-6.631-3.193c-1.456,1.859-2.912,3.193-4.085,3.193
		c-2.83,0-4.366-1.213-4.853-3.153c-1.213,1.697-3.033,3.396-5.539,3.396c-3.883,0-5.015-2.749-5.015-5.135
		c0-6.955,2.507-15.285,10.595-15.285c0.971,0,1.98,0.404,2.709,1.011l0.242-1.051h5.783V78.367z M234.634,81.4
		c-0.646-0.566-1.415-0.729-1.981-0.729c-3.032,0-5.458,6.43-5.458,11.93c0,2.426,1.334,2.871,2.346,2.871
		c0.93,0,1.818-0.931,2.627-2.063c0-0.404,0.082-0.849,0.203-1.294L234.634,81.4z M244.46,93.125c-0.485,0-0.931-0.121-1.416-0.322
		c-0.041,0.201-0.08,0.444-0.08,0.646c0,1.739,1.899,2.75,3.478,2.75c1.375,0,3.356-1.698,3.356-4.812c0-2.508-1.82-4.65-1.9-9.705
		c-0.646,1.98-1.214,4.568-2.104,6.591c0.971,0.323,1.334,1.051,1.334,2.264C247.128,92.074,245.874,93.125,244.46,93.125z"/>
	<path fill="#42424A" d="M257.122,92.156c0-5.135,2.184-14.153,9.543-14.153c3.315,0,5.176,1.375,5.176,4.206
		c0,4.934-5.297,7.765-9.139,8.249c-0.08,0.647-0.121,1.253-0.121,1.739c0,2.668,1.334,3.478,2.912,3.478
		c1.899,0,3.518-1.092,5.176-2.588c0,4.367-3.52,5.499-7.563,5.499C259.225,98.584,257.122,95.633,257.122,92.156z M267.999,80.147
		c-2.266,0-4.125,4.568-4.975,8.37c3.721-0.041,6.35-3.235,6.389-6.106C269.415,81.562,269.212,80.147,267.999,80.147z"/>
</g>
</svg>
