<svg xmlns="http://www.w3.org/2000/svg" width="271.84" height="99.112" viewBox="90.897 130.852 271.84 99.112"><path fill="#4D97CD" d="M230.554 139.561v-8.709l21.108 18.075-2.519 5.539-18.589-14.905z"/><path fill="#40BBAE" d="M251.662 156.485l-21.108 18.075v-8.708l21.108-16.925v7.558z"/><path fill="#D75056" d="M204.857 154.466l-2.519-5.539 21.108-18.075v8.709l-18.589 14.905z"/><path fill="#F5D25A" d="M202.338 156.485v-7.559l21.108 16.925v8.708l-21.108-18.074z"/><g fill="#42424A"><path d="M109.781 212.496l-.809 2.992h-6.065l-2.993 13.95h-5.822l5.822-27.011c-3.113.162-5.256 1.941-5.256 8.37 0 2.063.525 2.386.566 2.75-2.79 0-4.327-1.011-4.327-3.922 0-5.378 3.801-10.513 13.789-10.513 1.618 0 4.165.485 6.712.485 1.253 0 2.507-.121 3.639-.485-.566 1.698-.687 4.165-3.841 4.852-1.86 0-3.76-.364-5.661-.768l-1.981 9.3h6.227zm9.585-3.275l-.445 2.021c1.456-1.132 3.073-2.021 4.771-2.021 1.82 0 2.912 1.051 2.912 2.588 0 1.415-1.052 3.154-3.033 3.154-2.265 0-1.132-2.668-2.345-2.668-1.213 0-1.86.444-2.791 1.294l-3.356 15.851h-5.823l4.286-20.218h5.824zm22.201 5.539c.243.243.606.364 1.173.364 1.9 0 2.75-1.375 4.246-1.981l.162.849c-1.253 1.577-3.356 2.911-5.701 3.558-.769 8.127-5.176 12.13-9.219 12.13-4.327 0-6.187-1.819-6.187-6.631 0-9.947 5.055-14.233 10.635-14.233 3.84 0 4.811 2.993 4.891 5.944zm-3.113 3.195c-1.173 0-1.698-.849-1.698-1.819 0-1.173.687-2.426 1.779-2.831-.121-1.334-.566-2.103-1.698-2.103-3.801 0-5.418 8.249-5.418 11.483 0 2.426 1.132 3.073 2.709 3.073 2.466.001 3.841-3.881 4.326-7.803z"/><path d="M159.806 222.969c-.121.445-.202.89-.202 1.294 0 .89.445 1.496 2.022 1.496 1.617 0 2.224-1.253 3.841-2.547h1.375c-1.86 1.86-4.933 6.227-8.087 6.227s-5.014-1.375-5.014-4.408c0-.647.081-1.294.243-2.062l1.537-7.278c.081-.364.121-.728.121-1.051 0-1.456-.768-2.386-1.86-2.386-.971 0-1.698.283-2.547.849l-3.437 16.336h-5.823l4.286-20.218h5.823l-.485 2.184c1.658-1.213 3.518-2.184 5.297-2.184 2.183 0 4.65 2.345 4.65 5.054 0 .324 0 .647-.081.971l-1.659 7.723z"/><path d="M174.042 202.832s-.606 2.75-1.375 6.389h2.426l-.323 1.617h-2.426c-2.79 12.778-2.75 13.182-2.75 13.384 0 .93.404 1.537 2.022 1.537 1.617 0 3.72-2.264 5.337-3.558h1.375c-1.86 1.86-6.43 7.238-9.583 7.238-3.114 0-5.014-1.375-5.014-4.408 0-2.143 2.103-10.715 2.79-14.193h-1.334l.324-1.617h1.334l1.213-5.58 5.984-.809z"/><path d="M183.425 226.527c1.981 0 5.378-2.346 6.793-5.338h1.82c-2.305 4.165-6.187 8.249-11.403 8.249-3.882 0-5.985-2.952-5.985-6.429 0-5.135 2.184-14.153 9.543-14.153 3.316 0 5.176 1.375 5.176 4.206 0 4.933-5.297 7.764-9.138 8.249a14.507 14.507 0 0 0-.122 1.739c0 2.668 1.739 3.477 3.316 3.477zM185.527 211c-2.265 0-4.125 4.569-4.974 8.37 3.72-.041 6.349-3.235 6.389-6.106 0-.849-.202-2.264-1.415-2.264z"/><path d="M206.313 222.969c-.121.445-.202.89-.202 1.294 0 .89.445 1.496 2.022 1.496 1.617 0 2.224-1.253 3.841-2.547h1.375c-1.86 1.86-4.933 6.227-8.087 6.227s-5.014-1.375-5.014-4.408c0-.647.081-1.294.243-2.062l1.537-7.278c.081-.364.121-.728.121-1.051 0-1.456-.768-2.386-1.86-2.386-.97 0-1.698.283-2.547.849l-3.437 16.336h-5.823l4.286-20.218h5.823l-.485 2.184c1.658-1.213 3.518-2.184 5.297-2.184 2.183 0 4.65 2.345 4.65 5.054 0 .324 0 .647-.081.971l-1.659 7.723z"/><path d="M225.926 222.969c-.121.485-.202.93-.202 1.375 0 .849.324 1.496 1.456 1.496.283 0 .728 0 1.051-.122-1.132 3.478-2.831 3.72-4.206 3.72-2.345 0-3.599-1.213-4.003-3.033-1.213 1.658-3.033 3.275-5.459 3.275-3.882 0-5.014-2.749-5.014-5.135 0-6.955 2.507-15.285 10.594-15.285.971 0 1.981.445 2.709 1.011l1.779-8.33 5.944-.809-4.649 21.837zm-10.917.485c0 2.426 1.334 2.871 2.345 2.871.93 0 1.779-.889 2.547-1.981.041-.445.122-.89.243-1.375l2.305-10.756c-.647-.526-1.416-.688-1.981-.688-3.033 0-5.459 6.43-5.459 11.929zm38.256-20.541l-4.853 22.685c.769.566 1.536.809 2.305.809 4.812 0 7.764-9.745 7.764-17.509 0-5.054-.93-7.925-5.58-7.925-6.551 0-10.918 3.68-10.918 9.826 0 2.063.525 2.386.566 2.75-2.79 0-4.327-1.011-4.327-3.922 0-5.378 7.44-10.513 14.193-10.513 9.341 0 11.646 5.216 11.646 10.917 0 10.433-5.216 19.935-11.201 19.935-1.536 0-3.194-.646-4.933-2.143l-.323 1.617h-5.823l5.499-25.717 5.985-.81zm19.574 23.614c1.981 0 5.378-2.346 6.793-5.338h1.819c-2.305 4.165-6.187 8.249-11.402 8.249-3.882 0-5.984-2.952-5.984-6.429 0-5.135 2.184-14.153 9.543-14.153 3.315 0 5.176 1.375 5.176 4.206 0 4.933-5.298 7.764-9.139 8.249a14.486 14.486 0 0 0-.121 1.739c-.001 2.668 1.738 3.477 3.315 3.477zM274.941 211c-2.265 0-4.124 4.569-4.974 8.37 3.72-.041 6.349-3.235 6.389-6.106 0-.849-.202-2.264-1.415-2.264z"/><path d="M294.999 212.051c0 6.308-3.194 17.387-11.362 17.387-3.113 0-5.014-1.375-5.014-4.408 0-.606.04-1.294.202-2.062l2.911-13.748h5.822l-2.911 13.748c-.121.566-.202 1.051-.202 1.496 0 .769.364 1.294 1.537 1.294 3.962 0 6.672-8.855 6.672-13.263-.243.081-.606.162-.85.162-1.173 0-1.698-1.132-1.698-2.265 0-.849.971-1.981 2.305-1.981 1.739.001 2.588 1.537 2.588 3.64zm10.959-10.918l-1.94 9.179c.93-.688 2.143-1.173 3.478-1.173 3.882 0 5.135 2.75 5.135 5.135 0 6.349-3.478 15.285-10.715 15.285-4.003 0-6.672-1.132-6.672-4.609 0-.566.081-1.253.242-1.981l4.488-21.026 5.984-.81zm-.161 10.433c-.404 0-1.82.283-2.184.566l-2.305 10.837c-.202.971-.324 1.698-.324 2.224 0 1.213.566 1.496 1.779 1.496 3.316 0 5.338-9.219 5.338-12.131.001-2.426-1.293-2.992-2.304-2.992zm26.164-2.345l-2.871 13.748c-.121.606-.202 1.092-.202 1.496 0 .849.323 1.294 1.254 1.294.444 0 1.051-.566 1.698-1.496 0-3.356 1.455-5.216 3.073-5.337 1.455-2.628 2.386-6.227 3.072-9.3l5.863-1.213v.566c0 6.672 2.71 8.694 2.75 13.425l-.04.849c1.132-1.011 2.143-2.063 2.628-2.628l1.052 1.375c-1.133.89-2.75 2.305-4.367 3.68-1.052 2.225-3.356 3.761-7.117 3.761-3.72 0-5.903-.85-6.631-3.194-1.456 1.86-2.912 3.194-4.085 3.194-2.83 0-4.366-1.213-4.852-3.154-1.213 1.698-3.033 3.396-5.54 3.396-3.882 0-5.014-2.749-5.014-5.135 0-6.955 2.507-15.285 10.594-15.285.971 0 1.981.404 2.709 1.011l.243-1.051h5.783zm-6.43 3.032c-.646-.566-1.415-.728-1.981-.728-3.032 0-5.458 6.429-5.458 11.929 0 2.426 1.334 2.871 2.345 2.871.93 0 1.819-.93 2.628-2.062 0-.404.081-.849.203-1.294l2.263-10.716zm9.826 11.726c-.485 0-.93-.121-1.415-.323a3.491 3.491 0 0 0-.081.647c0 1.739 1.9 2.75 3.478 2.75 1.375 0 3.356-1.698 3.356-4.812 0-2.507-1.82-4.65-1.9-9.705-.647 1.981-1.214 4.569-2.104 6.591.971.323 1.335 1.051 1.335 2.264 0 1.537-1.254 2.588-2.669 2.588z"/><path d="M348.019 223.009c0-5.135 2.184-14.153 9.543-14.153 3.316 0 5.176 1.375 5.176 4.206 0 4.933-5.297 7.764-9.138 8.249a14.507 14.507 0 0 0-.122 1.739c0 2.668 1.335 3.478 2.912 3.478 1.9 0 3.518-1.092 5.176-2.588 0 4.367-3.519 5.499-7.562 5.499-3.882-.001-5.985-2.952-5.985-6.43zM358.896 211c-2.265 0-4.125 4.569-4.974 8.37 3.72-.041 6.349-3.235 6.389-6.106.001-.849-.202-2.264-1.415-2.264z"/></g></svg>