<svg xmlns="http://www.w3.org/2000/svg" width="100" height="100" viewBox="200 200 100 100"><path fill="#40BBAE" d="M263.076 259.119v23.815l13.539 14.233h18.217v-15.878h-11.487l-3.457-3.735v-11.613l-8.192-6.822z"/><path fill="#D75056" d="M220.112 221.893v12.472l8.002 5.323h8.81V215.25l-13.814-12.417h-17.942v15.878h11.314z"/><path fill="#F5D25A" d="M220.112 248.955v28.599l-3.458 3.735h-11.486v15.878h18.216l13.54-14.233v-23.815l10.274-4.183v-5.981z"/><path fill="#F5D25A" d="M247.198 242.976v11.96l-27.086 10.961v-31.532z"/><path fill="#4D97CD" d="M283.518 218.711h11.314v-15.878h-17.943l-13.813 12.417v24.438l-10.274 3.288v11.96l10.274 4.183 16.812 6.822v-44.048z"/></svg>