<?xml version="1.0" encoding="utf-8"?>
<!-- Generator: Adobe Illustrator 16.0.0, SVG Export Plug-In . SVG Version: 6.00 Build 0)  -->
<!DOCTYPE svg PUBLIC "-//W3C//DTD SVG 1.1//EN" "http://www.w3.org/Graphics/SVG/1.1/DTD/svg11.dtd">
<svg version="1.1" id="Ebene_1" xmlns="http://www.w3.org/2000/svg" xmlns:xlink="http://www.w3.org/1999/xlink" x="0px" y="0px"
	 width="271.84px" height="99.112px" viewBox="90.897 130.852 271.84 99.112" enable-background="new 90.897 130.852 271.84 99.112"
	 xml:space="preserve">
<g>
	<path fill="#4D97CD" d="M230.554,139.561v-8.709l21.108,18.075l-2.519,5.539L230.554,139.561z"/>
	<path fill="#40BBAE" d="M251.662,156.485l-21.108,18.075v-8.708l21.108-16.925V156.485L251.662,156.485z"/>
	<path fill="#D75056" d="M204.857,154.466l-2.519-5.539l21.108-18.075v8.709L204.857,154.466z"/>
	<path fill="#F5D25A" d="M202.338,156.485v-7.559l21.108,16.925v8.708L202.338,156.485L202.338,156.485z"/>
</g>
<g>
	<path fill="#42424A" d="M109.781,212.496l-0.809,2.992h-6.065l-2.993,13.95h-5.822l5.822-27.011
		c-3.113,0.162-5.256,1.941-5.256,8.37c0,2.063,0.525,2.386,0.566,2.75c-2.79,0-4.327-1.011-4.327-3.922
		c0-5.378,3.801-10.513,13.789-10.513c1.618,0,4.165,0.485,6.712,0.485c1.253,0,2.507-0.121,3.639-0.485
		c-0.566,1.698-0.687,4.165-3.841,4.852c-1.86,0-3.76-0.364-5.661-0.768l-1.981,9.3H109.781z"/>
	<path fill="#42424A" d="M119.366,209.221l-0.445,2.021c1.456-1.132,3.073-2.021,4.771-2.021c1.82,0,2.912,1.051,2.912,2.588
		c0,1.415-1.052,3.154-3.033,3.154c-2.265,0-1.132-2.668-2.345-2.668c-1.213,0-1.86,0.444-2.791,1.294l-3.356,15.851h-5.823
		l4.286-20.218H119.366z"/>
	<path fill="#42424A" d="M141.567,214.76c0.243,0.243,0.606,0.364,1.173,0.364c1.9,0,2.75-1.375,4.246-1.981l0.162,0.849
		c-1.253,1.577-3.356,2.911-5.701,3.558c-0.769,8.127-5.176,12.13-9.219,12.13c-4.327,0-6.187-1.819-6.187-6.631
		c0-9.947,5.055-14.233,10.635-14.233C140.516,208.816,141.487,211.809,141.567,214.76z M138.454,217.955
		c-1.173,0-1.698-0.849-1.698-1.819c0-1.173,0.687-2.426,1.779-2.831c-0.121-1.334-0.566-2.103-1.698-2.103
		c-3.801,0-5.418,8.249-5.418,11.483c0,2.426,1.132,3.073,2.709,3.073C136.594,225.759,137.969,221.877,138.454,217.955z"/>
	<path fill="#42424A" d="M159.806,222.969c-0.121,0.445-0.202,0.89-0.202,1.294c0,0.89,0.445,1.496,2.022,1.496
		c1.617,0,2.224-1.253,3.841-2.547h1.375c-1.86,1.86-4.933,6.227-8.087,6.227s-5.014-1.375-5.014-4.408
		c0-0.647,0.081-1.294,0.243-2.062l1.537-7.278c0.081-0.364,0.121-0.728,0.121-1.051c0-1.456-0.768-2.386-1.86-2.386
		c-0.971,0-1.698,0.283-2.547,0.849l-3.437,16.336h-5.823l4.286-20.218h5.823l-0.485,2.184c1.658-1.213,3.518-2.184,5.297-2.184
		c2.183,0,4.65,2.345,4.65,5.054c0,0.324,0,0.647-0.081,0.971L159.806,222.969z"/>
	<path fill="#42424A" d="M174.042,202.832c0,0-0.606,2.75-1.375,6.389h2.426l-0.323,1.617h-2.426
		c-2.79,12.778-2.75,13.182-2.75,13.384c0,0.93,0.404,1.537,2.022,1.537c1.617,0,3.72-2.264,5.337-3.558h1.375
		c-1.86,1.86-6.43,7.238-9.583,7.238c-3.114,0-5.014-1.375-5.014-4.408c0-2.143,2.103-10.715,2.79-14.193h-1.334l0.324-1.617h1.334
		l1.213-5.58L174.042,202.832z"/>
	<path fill="#42424A" d="M183.425,226.527c1.981,0,5.378-2.346,6.793-5.338h1.82c-2.305,4.165-6.187,8.249-11.403,8.249
		c-3.882,0-5.985-2.952-5.985-6.429c0-5.135,2.184-14.153,9.543-14.153c3.316,0,5.176,1.375,5.176,4.206
		c0,4.933-5.297,7.764-9.138,8.249c-0.081,0.647-0.122,1.253-0.122,1.739C180.109,225.718,181.848,226.527,183.425,226.527z
		 M185.527,211c-2.265,0-4.125,4.569-4.974,8.37c3.72-0.041,6.349-3.235,6.389-6.106C186.942,212.415,186.74,211,185.527,211z"/>
	<path fill="#42424A" d="M206.313,222.969c-0.121,0.445-0.202,0.89-0.202,1.294c0,0.89,0.445,1.496,2.022,1.496
		c1.617,0,2.224-1.253,3.841-2.547h1.375c-1.86,1.86-4.933,6.227-8.087,6.227s-5.014-1.375-5.014-4.408
		c0-0.647,0.081-1.294,0.243-2.062l1.537-7.278c0.081-0.364,0.121-0.728,0.121-1.051c0-1.456-0.768-2.386-1.86-2.386
		c-0.97,0-1.698,0.283-2.547,0.849l-3.437,16.336h-5.823l4.286-20.218h5.823l-0.485,2.184c1.658-1.213,3.518-2.184,5.297-2.184
		c2.183,0,4.65,2.345,4.65,5.054c0,0.324,0,0.647-0.081,0.971L206.313,222.969z"/>
	<path fill="#42424A" d="M225.926,222.969c-0.121,0.485-0.202,0.93-0.202,1.375c0,0.849,0.324,1.496,1.456,1.496
		c0.283,0,0.728,0,1.051-0.122c-1.132,3.478-2.831,3.72-4.206,3.72c-2.345,0-3.599-1.213-4.003-3.033
		c-1.213,1.658-3.033,3.275-5.459,3.275c-3.882,0-5.014-2.749-5.014-5.135c0-6.955,2.507-15.285,10.594-15.285
		c0.971,0,1.981,0.445,2.709,1.011l1.779-8.33l5.944-0.809L225.926,222.969z M215.009,223.454c0,2.426,1.334,2.871,2.345,2.871
		c0.93,0,1.779-0.889,2.547-1.981c0.041-0.445,0.122-0.89,0.243-1.375l2.305-10.756c-0.647-0.526-1.416-0.688-1.981-0.688
		C217.435,211.525,215.009,217.955,215.009,223.454z"/>
	<path fill="#42424A" d="M253.265,202.913l-4.853,22.685c0.769,0.566,1.536,0.809,2.305,0.809c4.812,0,7.764-9.745,7.764-17.509
		c0-5.054-0.93-7.925-5.58-7.925c-6.551,0-10.918,3.68-10.918,9.826c0,2.063,0.525,2.386,0.566,2.75
		c-2.79,0-4.327-1.011-4.327-3.922c0-5.378,7.44-10.513,14.193-10.513c9.341,0,11.646,5.216,11.646,10.917
		c0,10.433-5.216,19.935-11.201,19.935c-1.536,0-3.194-0.646-4.933-2.143l-0.323,1.617h-5.823l5.499-25.717L253.265,202.913z"/>
	<path fill="#42424A" d="M272.839,226.527c1.981,0,5.378-2.346,6.793-5.338h1.819c-2.305,4.165-6.187,8.249-11.402,8.249
		c-3.882,0-5.984-2.952-5.984-6.429c0-5.135,2.184-14.153,9.543-14.153c3.315,0,5.176,1.375,5.176,4.206
		c0,4.933-5.298,7.764-9.139,8.249c-0.081,0.647-0.121,1.253-0.121,1.739C269.523,225.718,271.262,226.527,272.839,226.527z
		 M274.941,211c-2.265,0-4.124,4.569-4.974,8.37c3.72-0.041,6.349-3.235,6.389-6.106C276.356,212.415,276.154,211,274.941,211z"/>
	<path fill="#42424A" d="M294.999,212.051c0,6.308-3.194,17.387-11.362,17.387c-3.113,0-5.014-1.375-5.014-4.408
		c0-0.606,0.04-1.294,0.202-2.062l2.911-13.748h5.822l-2.911,13.748c-0.121,0.566-0.202,1.051-0.202,1.496
		c0,0.769,0.364,1.294,1.537,1.294c3.962,0,6.672-8.855,6.672-13.263c-0.243,0.081-0.606,0.162-0.85,0.162
		c-1.173,0-1.698-1.132-1.698-2.265c0-0.849,0.971-1.981,2.305-1.981C294.15,208.412,294.999,209.948,294.999,212.051z"/>
	<path fill="#42424A" d="M305.958,201.133l-1.94,9.179c0.93-0.688,2.143-1.173,3.478-1.173c3.882,0,5.135,2.75,5.135,5.135
		c0,6.349-3.478,15.285-10.715,15.285c-4.003,0-6.672-1.132-6.672-4.609c0-0.566,0.081-1.253,0.242-1.981l4.488-21.026
		L305.958,201.133z M305.797,211.566c-0.404,0-1.82,0.283-2.184,0.566l-2.305,10.837c-0.202,0.971-0.324,1.698-0.324,2.224
		c0,1.213,0.566,1.496,1.779,1.496c3.316,0,5.338-9.219,5.338-12.131C308.102,212.132,306.808,211.566,305.797,211.566z"/>
	<path fill="#42424A" d="M331.961,209.221l-2.871,13.748c-0.121,0.606-0.202,1.092-0.202,1.496c0,0.849,0.323,1.294,1.254,1.294
		c0.444,0,1.051-0.566,1.698-1.496c0-3.356,1.455-5.216,3.073-5.337c1.455-2.628,2.386-6.227,3.072-9.3l5.863-1.213v0.566
		c0,6.672,2.71,8.694,2.75,13.425l-0.04,0.849c1.132-1.011,2.143-2.063,2.628-2.628l1.052,1.375c-1.133,0.89-2.75,2.305-4.367,3.68
		c-1.052,2.225-3.356,3.761-7.117,3.761c-3.72,0-5.903-0.85-6.631-3.194c-1.456,1.86-2.912,3.194-4.085,3.194
		c-2.83,0-4.366-1.213-4.852-3.154c-1.213,1.698-3.033,3.396-5.54,3.396c-3.882,0-5.014-2.749-5.014-5.135
		c0-6.955,2.507-15.285,10.594-15.285c0.971,0,1.981,0.404,2.709,1.011l0.243-1.051H331.961z M325.531,212.253
		c-0.646-0.566-1.415-0.728-1.981-0.728c-3.032,0-5.458,6.429-5.458,11.929c0,2.426,1.334,2.871,2.345,2.871
		c0.93,0,1.819-0.93,2.628-2.062c0-0.404,0.081-0.849,0.203-1.294L325.531,212.253z M335.357,223.979
		c-0.485,0-0.93-0.121-1.415-0.323c-0.041,0.202-0.081,0.445-0.081,0.647c0,1.739,1.9,2.75,3.478,2.75
		c1.375,0,3.356-1.698,3.356-4.812c0-2.507-1.82-4.65-1.9-9.705c-0.647,1.981-1.214,4.569-2.104,6.591
		c0.971,0.323,1.335,1.051,1.335,2.264C338.026,222.928,336.772,223.979,335.357,223.979z"/>
	<path fill="#42424A" d="M348.019,223.009c0-5.135,2.184-14.153,9.543-14.153c3.316,0,5.176,1.375,5.176,4.206
		c0,4.933-5.297,7.764-9.138,8.249c-0.081,0.647-0.122,1.253-0.122,1.739c0,2.668,1.335,3.478,2.912,3.478
		c1.9,0,3.518-1.092,5.176-2.588c0,4.367-3.519,5.499-7.562,5.499C350.122,229.438,348.019,226.487,348.019,223.009z M358.896,211
		c-2.265,0-4.125,4.569-4.974,8.37c3.72-0.041,6.349-3.235,6.389-6.106C360.312,212.415,360.109,211,358.896,211z"/>
</g>
</svg>
