<?xml version="1.0" encoding="utf-8"?>
<!-- Generator: Adobe Illustrator 16.0.0, SVG Export Plug-In . SVG Version: 6.00 Build 0)  -->
<!DOCTYPE svg PUBLIC "-//W3C//DTD SVG 1.1//EN" "http://www.w3.org/Graphics/SVG/1.1/DTD/svg11.dtd">
<svg version="1.1" id="Ebene_1" xmlns="http://www.w3.org/2000/svg" xmlns:xlink="http://www.w3.org/1999/xlink" x="0px" y="0px"
	 width="100px" height="100px" viewBox="200 200 100 100" enable-background="new 200 200 100 100" xml:space="preserve">
<g>
	<polygon fill="#40BBAE" points="263.076,259.119 263.076,282.934 276.615,297.167 294.832,297.167 294.832,281.289 
		283.345,281.289 279.888,277.554 279.888,265.941 271.696,259.119 	"/>
	<polygon fill="#D75056" points="220.112,221.893 220.112,234.365 228.114,239.688 236.924,239.688 236.924,215.25 223.11,202.833 
		205.168,202.833 205.168,218.711 216.482,218.711 	"/>
	<polygon fill="#F5D25A" points="220.112,248.955 220.112,277.554 216.654,281.289 205.168,281.289 205.168,297.167 
		223.384,297.167 236.924,282.934 236.924,259.119 247.198,254.936 247.198,248.955 	"/>
	<polygon fill="#F5D25A" points="247.198,242.976 247.198,254.936 220.112,265.897 220.112,234.365 	"/>
	<polygon fill="#4D97CD" points="283.518,218.711 294.832,218.711 294.832,202.833 276.889,202.833 263.076,215.25 263.076,239.688 
		252.802,242.976 252.802,254.936 263.076,259.119 279.888,265.941 279.888,221.893 	"/>
</g>
</svg>
